<svg width="200" height="170" viewBox="0 0 200 170" fill="none" xmlns="http://www.w3.org/2000/svg">
<g clip-path="url(#clip0_324_175)">
<rect width="200" height="170" fill="white"/>
<path d="M104.43 82.2855C109.143 83.2897 112.928 85.6458 115.786 89.3538C118.644 92.9845 120.073 97.1559 120.073 101.868C120.073 108.666 117.679 114.073 112.889 118.09C108.177 122.03 101.572 124 93.0749 124H55.1842V42.6567H91.8003C100.066 42.6567 106.516 44.5493 111.151 48.3345C115.863 52.1197 118.219 57.2568 118.219 63.7457C118.219 68.5351 116.945 72.5135 114.396 75.6807C111.924 78.8479 108.602 81.0495 104.43 82.2855ZM74.9986 75.5648H87.9764C91.2209 75.5648 93.6929 74.8696 95.3923 73.4791C97.1691 72.0113 98.0574 69.887 98.0574 67.106C98.0574 64.325 97.1691 62.2007 95.3923 60.733C93.6929 59.2652 91.2209 58.5314 87.9764 58.5314H74.9986V75.5648ZM89.5987 108.009C92.9204 108.009 95.4696 107.276 97.2463 105.808C99.1003 104.263 100.027 102.061 100.027 99.203C100.027 96.3448 99.0617 94.1046 97.1304 92.4824C95.2765 90.8601 92.6886 90.049 89.3669 90.049H74.9986V108.009H89.5987Z" fill="black"/>
<path d="M138.014 124.768C135.134 124.768 132.766 123.936 130.91 122.272C129.118 120.544 128.222 118.432 128.222 115.936C128.222 113.376 129.118 111.232 130.91 109.504C132.766 107.776 135.134 106.912 138.014 106.912C140.83 106.912 143.134 107.776 144.926 109.504C146.782 111.232 147.71 113.376 147.71 115.936C147.71 118.432 146.782 120.544 144.926 122.272C143.134 123.936 140.83 124.768 138.014 124.768Z" fill="#00537D"/>
</g>
<defs>
<clipPath id="clip0_324_175">
<rect width="200" height="170" fill="white"/>
</clipPath>
</defs>
</svg>
